<svg width="48" height="48" viewBox="0 0 48 48" fill="none" xmlns="http://www.w3.org/2000/svg">
<path d="M23.2958 29.547L23.9031 29.0361C25.7081 27.5176 27.0026 25.4808 27.6109 23.2018C28.2193 20.9228 28.1121 18.5119 27.304 16.2958C26.4958 14.0798 25.0258 12.1659 23.0932 10.8135C21.1605 9.46118 18.8588 8.73584 16.5 8.73584C14.1412 8.73584 11.8394 9.46118 9.90681 10.8135C7.97418 12.1659 6.50414 14.0798 5.69599 16.2958C4.88785 18.5119 4.78068 20.9228 5.38904 23.2018C5.99739 25.4808 7.29183 27.5176 9.09686 29.0361L9.70421 29.547L8.98113 29.8742C6.00796 31.2197 3.44947 33.337 1.57166 36.006L23.2958 29.547ZM23.2958 29.547L24.0188 29.8742M23.2958 29.547L24.0188 29.8742M24.0188 29.8742C26.9921 31.2197 29.5507 33.3372 31.4285 36.0064L31.4357 36.0165L31.4433 36.0263C31.5892 36.2132 31.6956 36.4278 31.756 36.657C31.8165 36.8863 31.8297 37.1254 31.7949 37.3599C31.7601 37.5944 31.678 37.8194 31.5536 38.0213C31.4293 38.2231 31.2652 38.3975 31.0713 38.534C30.8775 38.6705 30.6579 38.7662 30.426 38.8152C30.194 38.8643 29.9545 38.8657 29.722 38.8194C29.4895 38.7731 29.2688 38.68 29.0734 38.5458C28.8779 38.4117 28.7118 38.2392 28.585 38.0388L28.5786 38.0287L28.5717 38.0189C27.211 36.0808 25.4036 34.4989 23.3024 33.4067C21.2013 32.3146 18.868 31.7445 16.5 31.7445C14.1319 31.7445 11.7987 32.3146 9.69752 33.4067C7.59634 34.4989 5.789 36.0808 4.42827 38.0189L4.42716 38.0205C4.2672 38.2502 4.05392 38.4377 3.80561 38.5669C3.55729 38.6961 3.28135 38.7632 3.00142 38.7624L2.99836 38.7624C2.63935 38.7636 2.28905 38.6519 1.99698 38.4431L1.99458 38.4414M24.0188 29.8742L1.99458 38.4414M1.99458 38.4414C1.61601 38.1742 1.35888 37.7677 1.2796 37.3112C1.20034 36.8547 1.30529 36.3855 1.57142 36.0064L1.99458 38.4414ZM46.2901 38.439L46.2901 38.439C46.4786 38.3083 46.6393 38.1414 46.7628 37.948C46.8863 37.7546 46.9701 37.5386 47.0093 37.3125C47.0486 37.0864 47.0425 36.8548 46.9915 36.6311C46.9404 36.4074 46.8454 36.1961 46.712 36.0095L46.7098 36.0064C44.832 33.3372 42.2734 31.2197 39.3001 29.8742L38.575 29.5461L39.1853 29.0353C40.9952 27.5203 42.2942 25.4845 42.9055 23.2048C43.5168 20.9251 43.4107 18.5124 42.6016 16.2952C41.7924 14.078 40.3197 12.1641 38.3838 10.8139C36.4479 9.46377 34.1429 8.74306 31.7827 8.74992L31.7804 8.74992C30.7301 8.74817 29.6846 8.89321 28.6744 9.18081L28.6654 9.18337L28.6654 9.18328C28.441 9.24266 28.2307 9.34609 28.0466 9.48753C27.8626 9.62898 27.7086 9.80562 27.5935 10.0072C27.4783 10.2087 27.4045 10.4312 27.3762 10.6615C27.3478 10.8919 27.3656 11.1256 27.4285 11.3491C27.4914 11.5725 27.5981 11.7812 27.7424 11.963L27.3639 12.2634L27.7424 11.963C27.8867 12.1448 28.0657 12.2961 28.269 12.408C28.4723 12.52 28.6959 12.5904 28.9267 12.6151C29.1575 12.6398 29.3909 12.6184 29.6133 12.552L29.6191 12.5503L29.6191 12.5504C30.3225 12.3497 31.0506 12.2485 31.7822 12.2499M46.2901 38.439L43.4437 38.3062L43.8524 38.0181C43.8523 38.0179 43.8521 38.0177 43.852 38.0175C42.4885 36.0833 40.6807 34.5045 38.5805 33.4139C36.4801 32.3232 34.1485 31.7525 31.7818 31.7499H31.7812C31.3171 31.7499 30.872 31.5655 30.5438 31.2374C30.2156 30.9092 30.0312 30.464 30.0312 29.9999C30.0312 29.5358 30.2156 29.0907 30.5438 28.7625C30.872 28.4343 31.3171 28.2499 31.7812 28.2499C33.903 28.2499 35.9378 27.4071 37.4381 25.9068C38.9384 24.4065 39.7812 22.3717 39.7812 20.2499C39.7812 18.1282 38.9384 16.0934 37.4381 14.5931C35.938 13.093 33.9036 12.2502 31.7822 12.2499M46.2901 38.439L46.2842 38.4431M46.2901 38.439L46.2842 38.4431M31.7822 12.2499L31.7812 12.7499V12.2499C31.7815 12.2499 31.7819 12.2499 31.7822 12.2499ZM39.5062 29.4187L39.7124 28.9631C39.7811 28.9943 39.8497 29.0258 39.918 29.0577C39.7838 29.1809 39.6465 29.3013 39.5062 29.4187ZM39.5062 29.4187L39.8272 29.8021C39.8862 29.7526 39.9448 29.7027 40.0029 29.6522C39.8386 29.572 39.6731 29.4942 39.5062 29.4187ZM46.2842 38.4431C45.9923 38.6518 45.6423 38.7635 45.2835 38.7624L46.2842 38.4431ZM9.84823 15.8054C8.96918 17.121 8.49998 18.6677 8.49998 20.2499C8.49998 22.3717 9.34284 24.4065 10.8431 25.9068C12.3434 27.4071 14.3783 28.2499 16.5 28.2499C18.0822 28.2499 19.629 27.7807 20.9445 26.9017C22.2601 26.0226 23.2855 24.7732 23.891 23.3114C24.4965 21.8496 24.6549 20.241 24.3463 18.6892C24.0376 17.1374 23.2757 15.7119 22.1568 14.5931C21.038 13.4742 19.6126 12.7123 18.0607 12.4036C16.5089 12.095 14.9003 12.2534 13.4385 12.8589C11.9767 13.4644 10.7273 14.4898 9.84823 15.8054Z" fill="#4CAF4F" stroke="#4CAF4F"/>
</svg>
