<svg width="48" height="48" viewBox="0 0 48 48" fill="none" xmlns="http://www.w3.org/2000/svg">
<path d="M24.9035 18.3938L24.9033 23.4167V23.4168V23.4752C24.9033 23.5917 24.9183 23.7047 24.9465 23.8125L24.8987 24.6302L24.8961 24.6742C24.8849 24.8659 24.8103 25.0335 24.6841 25.1598L26.1267 24.2148C26.0445 24.2013 25.9624 24.1722 25.8805 24.1276L25.4843 23.9119V23.4752V23.4168V18.3938M24.9035 18.3938V18.3938L25.1939 18.3938L25.4843 18.3938M24.9035 18.3938C24.9035 18.5542 25.0338 18.6842 25.1939 18.6842C25.3543 18.6842 25.4843 18.5539 25.4843 18.3938M24.9035 18.3938H25.1939H25.4843M19.2832 17.9448L19.2833 17.9449L19.2832 17.9448ZM19.2832 17.9448C19.0702 18.3159 18.5585 18.4544 18.1849 18.2398L19.2832 17.9448ZM17.8522 18.8175L17.8515 18.8172C17.5772 18.6588 17.3794 18.3993 17.2975 18.0953L17.2974 18.0948L17.2973 18.0947L17.2969 18.0932C17.2304 17.8427 17.2472 17.5806 17.343 17.3431V17.1486C17.1722 17.4436 17.1265 17.7878 17.2148 18.1169C17.3027 18.4458 17.514 18.7208 17.8095 18.892L17.8522 18.8175ZM25.0956 25.5709L25.1557 25.631L25.0956 25.5709L25.0949 25.5716C24.8441 25.8219 24.5077 25.9601 24.1544 25.9601C24.1544 25.9601 24.1544 25.9601 24.1544 25.9601C23.6743 25.9601 23.2531 25.7049 23.0193 25.3229C22.9953 25.3352 22.971 25.3471 22.9464 25.3585L25.0956 25.5709ZM17.9194 17.4835C17.8377 17.6252 17.8165 17.7867 17.8587 17.9439C17.8587 17.944 17.8587 17.944 17.8587 17.9441L17.8587 17.9442L17.8589 17.9448C17.9007 18.1012 17.9991 18.2307 18.1419 18.3142C18.142 18.3142 18.142 18.3142 18.1421 18.3143L17.9194 17.4835Z" fill="#4CAF4F" stroke="#4CAF4F" stroke-width="1.33333"/>
<path d="M16.1252 30.7917C15.9466 30.8992 15.7157 30.8412 15.609 30.6629C15.5021 30.4848 15.56 30.2536 15.7379 30.1467L16.1252 30.7917ZM11.7468 26.427C11.7615 26.4006 11.7752 26.376 11.7878 26.3531C11.8391 26.2608 11.8738 26.1983 11.8877 26.1732L11.9635 26.2131C11.9167 26.2975 11.8708 26.3802 11.8257 26.4614C11.7993 26.4515 11.7729 26.4401 11.7468 26.427ZM22.1553 28.7211C22.3075 28.6296 22.415 28.485 22.4578 28.3132C22.5007 28.1417 22.4741 27.9634 22.3829 27.8112L22.1553 28.7211Z" fill="#4CAF4F" stroke="#4CAF4F" stroke-width="1.33333"/>
<path d="M27.8527 28.0932C27.7587 28.0349 27.6732 27.9659 27.5976 27.8879L26.8782 27.5115L26.8782 27.5115L26.8381 27.4905C26.7243 27.431 26.6083 27.4028 26.4965 27.4025L27.8527 28.0932ZM26.1717 26.8619C26.1718 26.8618 26.1719 26.8618 26.1721 26.8618L26.2275 27.084L26.2275 27.0841L26.3126 27.4255L26.3125 27.4255L26.1717 26.8619ZM30.3872 33.7855C30.387 33.7855 30.3869 33.7854 30.3867 33.7853L30.3872 33.7855ZM25.845 30.1871L25.8464 30.1879L25.845 30.1871Z" fill="#4CAF4F" stroke="#4CAF4F" stroke-width="1.33333"/>
</svg>
