<svg width="66" height="56" viewBox="0 0 66 56" fill="none" xmlns="http://www.w3.org/2000/svg">
<path d="M65.5 38C65.5 47.9411 57.4411 56 47.5 56L20.5 56C17.7386 56 15.5 53.7614 15.5 51L15.5 17C15.5 11.4772 19.9772 7 25.5 7L60.5 7C63.2614 7 65.5 9.23858 65.5 12L65.5 38Z" fill="#E8F5E9"/>
<path d="M27.4163 19.0106C27.1043 19.0106 26.8506 18.7574 26.8506 18.445V17.4836C26.8506 17.1716 27.1039 16.918 27.4163 16.918C27.7283 16.918 27.982 17.1712 27.982 17.4836V18.445C27.982 18.7574 27.7284 19.0106 27.4163 19.0106Z" fill="#103E13"/>
<path d="M25.0381 19.0106C24.7261 19.0106 24.4724 18.7574 24.4724 18.445V17.4836C24.4724 17.1716 24.7257 16.918 25.0381 16.918C25.3501 16.918 25.6038 17.1712 25.6038 17.4836V18.445C25.6034 18.7574 25.3505 19.0106 25.0381 19.0106Z" fill="#103E13"/>
<path d="M22.66 19.0106C22.348 19.0106 22.0944 18.7574 22.0944 18.445V17.4836C22.0944 17.1716 22.3476 16.918 22.66 16.918C22.9721 16.918 23.2257 17.1712 23.2257 17.4836V18.445C23.2257 18.7574 22.9725 19.0106 22.66 19.0106Z" fill="#103E13"/>
<path d="M27.4163 22.9419C27.1043 22.9419 26.8506 22.6886 26.8506 22.3762V21.4153C26.8506 21.1033 27.1039 20.8496 27.4163 20.8496C27.7283 20.8496 27.982 21.1029 27.982 21.4153V22.3762C27.982 22.6886 27.7284 22.9419 27.4163 22.9419Z" fill="#103E13"/>
<path d="M25.0381 22.9419C24.7261 22.9419 24.4724 22.6886 24.4724 22.3762V21.4153C24.4724 21.1033 24.7257 20.8496 25.0381 20.8496C25.3501 20.8496 25.6038 21.1029 25.6038 21.4153V22.3762C25.6034 22.6886 25.3505 22.9419 25.0381 22.9419Z" fill="#103E13"/>
<path d="M22.66 22.9419C22.348 22.9419 22.0944 22.6886 22.0944 22.3762V21.4153C22.0944 21.1033 22.3476 20.8496 22.66 20.8496C22.9721 20.8496 23.2257 21.1029 23.2257 21.4153V22.3762C23.2257 22.6886 22.9725 22.9419 22.66 22.9419Z" fill="#103E13"/>
<path d="M27.4163 26.8734C27.1043 26.8734 26.8506 26.6202 26.8506 26.3078V25.3464C26.8506 25.0344 27.1039 24.7808 27.4163 24.7808C27.7283 24.7808 27.982 25.034 27.982 25.3464V26.3078C27.982 26.6202 27.7284 26.8734 27.4163 26.8734Z" fill="#103E13"/>
<path d="M25.0381 26.8734C24.7261 26.8734 24.4724 26.6202 24.4724 26.3078V25.3464C24.4724 25.0344 24.7257 24.7808 25.0381 24.7808C25.3501 24.7808 25.6038 25.034 25.6038 25.3464V26.3078C25.6034 26.6202 25.3505 26.8734 25.0381 26.8734Z" fill="#103E13"/>
<path d="M22.66 26.8734C22.348 26.8734 22.0944 26.6202 22.0944 26.3078V25.3464C22.0944 25.0344 22.3476 24.7808 22.66 24.7808C22.9721 24.7808 23.2257 25.034 23.2257 25.3464V26.3078C23.2257 26.6202 22.9725 26.8734 22.66 26.8734Z" fill="#103E13"/>
<path d="M27.4163 30.8036C27.1043 30.8036 26.8506 30.5504 26.8506 30.2379V29.2766C26.8506 28.9646 27.1039 28.7109 27.4163 28.7109C27.7283 28.7109 27.982 28.9642 27.982 29.2766V30.2379C27.982 30.5504 27.7284 30.8036 27.4163 30.8036Z" fill="#103E13"/>
<path d="M25.0381 30.8036C24.7261 30.8036 24.4724 30.5504 24.4724 30.2379V29.2766C24.4724 28.9646 24.7257 28.7109 25.0381 28.7109C25.3501 28.7109 25.6038 28.9642 25.6038 29.2766V30.2379C25.6034 30.5504 25.3505 30.8036 25.0381 30.8036Z" fill="#103E13"/>
<path d="M22.66 30.8036C22.348 30.8036 22.0944 30.5504 22.0944 30.2379V29.2766C22.0944 28.9646 22.3476 28.7109 22.66 28.7109C22.9721 28.7109 23.2257 28.9642 23.2257 29.2766V30.2379C23.2257 30.5504 22.9725 30.8036 22.66 30.8036Z" fill="#103E13"/>
<path d="M27.4163 34.7349C27.1043 34.7349 26.8506 34.4816 26.8506 34.1692V33.2083C26.8506 32.8962 27.1039 32.6426 27.4163 32.6426C27.7283 32.6426 27.982 32.8958 27.982 33.2083V34.1692C27.982 34.4812 27.7284 34.7349 27.4163 34.7349Z" fill="#103E13"/>
<path d="M25.0381 34.7349C24.7261 34.7349 24.4724 34.4816 24.4724 34.1692V33.2083C24.4724 32.8962 24.7257 32.6426 25.0381 32.6426C25.3501 32.6426 25.6038 32.8958 25.6038 33.2083V34.1692C25.6034 34.4812 25.3505 34.7349 25.0381 34.7349Z" fill="#103E13"/>
<path d="M22.66 34.7349C22.348 34.7349 22.0944 34.4816 22.0944 34.1692L22.0948 33.2083C22.0948 32.8962 22.348 32.6426 22.6604 32.6426C22.9725 32.6426 23.2261 32.8958 23.2261 33.2083V34.1692C23.2257 34.4812 22.9725 34.7349 22.66 34.7349Z" fill="#103E13"/>
<path d="M6.50047 38.6471C6.50047 38.9592 6.75372 39.2128 7.06615 39.2128H41.5139C41.8259 39.2128 42.0796 38.9596 42.0796 38.6471C42.0796 38.3351 41.8263 38.0815 41.5139 38.0815H40.4682V21.8402C40.4682 21.5281 40.215 21.2745 39.9025 21.2745L30.6668 21.2749V9.56576C30.6668 9.36774 30.5635 9.18471 30.3946 9.08214C30.2262 8.97919 30.0156 8.97287 29.8404 9.06399L19.3401 14.531C19.1527 14.6284 19.0359 14.8217 19.0359 15.0327V25.2604H8.87388C8.56186 25.2604 8.3082 25.5137 8.3082 25.8261V38.0816H7.06489C6.75287 38.0812 6.5 38.3344 6.5 38.6468L6.50047 38.6471ZM30.667 29.8422H39.3374V38.0819L30.667 38.0815V29.8422ZM30.667 25.9113H39.3374V28.7113L30.667 28.7109V25.9113ZM30.667 22.4056H39.3374V24.7808H30.667V22.4056ZM20.1667 15.3762L29.5353 10.4982V38.081H20.1667V15.3762ZM12.2359 33.5635C12.2359 32.3895 13.166 31.4341 14.3096 31.4341C15.4531 31.4341 16.3837 32.3891 16.3837 33.5635V38.0817H12.2359V33.5635ZM9.43952 26.3916H19.0358V38.0815H17.515V33.5633C17.515 31.7657 16.0776 30.303 14.3096 30.303C12.5424 30.303 11.105 31.7653 11.105 33.5633V38.0815H9.43952V26.3916Z" fill="#103E13"/>
</svg>
