<svg width="44" height="30" viewBox="0 0 44 30" fill="none" xmlns="http://www.w3.org/2000/svg">
<path d="M23.2259 16.4021L16.561 27.8169L9.89611 16.4021H23.2259ZM25.0114 15.3818H8.10339L16.561 29.8359L25.0114 15.3818Z" fill="white"/>
<path d="M34.8137 2.20446L41.4786 13.6193H28.1488L34.8137 2.20446ZM34.8137 0.164062L26.3561 14.6181H43.2713L34.8137 0.164062Z" fill="white"/>
<path d="M0 0.164062L7.09143 12.9487L14.8406 0.485087L0 0.164062Z" fill="#4CAF4F"/>
<path d="M16.5612 1.28394L23.9997 13.9972H9.1084L16.5612 1.28394Z" fill="#4CAF4F"/>
<path d="M25.9152 16.7729L33.3608 29.8359H18.1154L25.6838 16.7729H25.9152Z" fill="#4CAF4F"/>
<path d="M27.5272 15.981L34.8138 28.8441L42.2016 15.981H27.5272Z" fill="#4CAF4F"/>
</svg>
