<svg width="36" height="24" viewBox="0 0 36 24" fill="none" xmlns="http://www.w3.org/2000/svg">
<path d="M19.5316 13.1338L14.1406 22.3667L8.74972 13.1338H19.5316ZM20.9758 12.3086H7.29968L14.1406 23.9998L20.9758 12.3086Z" fill="#263238"/>
<path d="M28.9043 1.65038L34.2952 10.8833H23.5134L28.9043 1.65038ZM28.9043 0L22.0634 11.6912H35.7453L28.9043 0Z" fill="#263238"/>
<path d="M0.745239 0L6.48114 10.3409L12.7491 0.259661L0.745239 0Z" fill="#4CAF4F"/>
<path d="M14.1408 0.905762L20.1573 11.1889H8.11255L14.1408 0.905762Z" fill="#4CAF4F"/>
<path d="M21.7067 13.4341L27.7291 24H15.3978L21.5196 13.4341H21.7067Z" fill="#4CAF4F"/>
<path d="M23.0105 12.7935L28.9042 23.1978L34.8799 12.7935H23.0105Z" fill="#4CAF4F"/>
</svg>
