<svg width="48" height="48" viewBox="0 0 48 48" fill="none" xmlns="http://www.w3.org/2000/svg">
<g clip-path="url(#clip0_2_949)">
<path d="M44.9966 13.4115C44.9966 13.4453 44.9966 13.4876 44.9878 13.5129C44.9437 13.8426 44.9437 14.1723 44.9701 14.5105C44.9878 14.595 45.0054 14.6795 45.0759 14.7472C45.1904 14.874 45.3665 14.8486 45.437 14.6964C45.4722 14.6204 45.4722 14.5443 45.4546 14.4682C45.3665 14.147 45.3489 13.8088 45.3401 13.4791C45.3401 13.4622 45.3401 13.4369 45.3401 13.4115C45.437 13.4031 45.5251 13.3946 45.6043 13.3946C45.666 13.3861 45.7188 13.3777 45.7629 13.3523C45.8949 13.2847 45.895 13.141 45.754 13.0734C45.7012 13.048 45.6307 13.0396 45.5691 13.0396C45.3489 13.048 45.1287 13.048 44.9085 13.048C44.8293 13.048 44.75 13.0565 44.6707 13.0649C44.6266 13.0734 44.5738 13.0734 44.5386 13.0987C44.4769 13.1241 44.4417 13.1664 44.4417 13.2255C44.4505 13.2847 44.4769 13.3185 44.5386 13.3439C44.5738 13.3692 44.6178 13.3777 44.6619 13.3777C44.7676 13.3861 44.8821 13.4031 44.9966 13.4115ZM47.4187 13.8004C47.4187 13.8088 47.4275 13.8173 47.4275 13.8173C47.4627 14.0455 47.498 14.2653 47.5244 14.4851C47.5332 14.5612 47.542 14.6288 47.5949 14.688C47.7094 14.8317 47.8855 14.8148 47.9648 14.6626C48 14.5865 48.0088 14.5105 47.9912 14.4259C47.9384 14.1723 47.9119 13.9187 47.8591 13.6736C47.8238 13.5214 47.7799 13.3777 47.7358 13.2424C47.7094 13.1579 47.6477 13.0987 47.542 13.0903C47.4364 13.0734 47.3571 13.1241 47.313 13.2002C47.2602 13.2678 47.2161 13.3354 47.1809 13.4115C47.1192 13.5468 47.0664 13.682 46.996 13.8088C46.9871 13.8426 46.9783 13.868 46.9607 13.8934C46.9519 13.8764 46.9431 13.868 46.9431 13.868C46.8286 13.6567 46.7229 13.4453 46.6084 13.2424C46.5908 13.2255 46.582 13.2086 46.5732 13.1917C46.5203 13.1156 46.4587 13.0734 46.3618 13.0734C46.2737 13.0818 46.2032 13.1325 46.1592 13.2086C46.1416 13.2424 46.1416 13.2678 46.1328 13.3016C46.0975 13.5721 46.0535 13.8426 46.0183 14.1131C46.0006 14.2653 45.9918 14.4175 45.9918 14.5696C45.983 14.6034 45.9918 14.6457 46.0094 14.6795C46.0271 14.7471 46.0799 14.7894 46.1504 14.7979C46.2385 14.8063 46.3001 14.781 46.3265 14.7133C46.3529 14.6626 46.3618 14.6204 46.3706 14.5781C46.4058 14.4259 46.4322 14.2822 46.4587 14.1385C46.4763 14.054 46.4851 13.9863 46.5115 13.8934C46.5291 13.9272 46.5467 13.9525 46.5644 13.9779C46.6436 14.0793 46.7229 14.1808 46.8198 14.2653C46.9167 14.3329 46.996 14.3245 47.0752 14.2484C47.0928 14.2315 47.1016 14.223 47.1192 14.2061C47.1985 14.0878 47.2954 13.9694 47.3746 13.8511C47.3923 13.8342 47.4011 13.8173 47.4187 13.8004Z" fill="#3A3B7B"/>
<path d="M27.1244 13.5774C27.0632 13.738 27.0515 13.8538 27.0798 13.95C27.111 14.0808 27.192 14.1236 27.302 14.0903C28.3366 13.8448 30.6051 14.5417 31.445 14.736C31.6431 14.7767 31.8042 14.5313 31.6691 14.3113C31.4718 14.0982 29.2043 13.1859 28.3391 13.1362C27.9999 13.1178 27.3936 13.0343 27.1244 13.5774Z" fill="#3A3B7B"/>
<path d="M35.9904 10.6241C36.1006 10.6852 36.1622 10.7435 36.1927 10.8085C36.238 10.8939 36.2141 10.953 36.1379 10.9832C35.4541 11.3035 34.5441 12.6826 34.1768 13.1582C34.0877 13.2676 33.8823 13.2041 33.8513 13.0241C33.8577 12.8207 34.6643 11.3241 35.1145 10.9164C35.2915 10.7573 35.5837 10.445 35.9904 10.6241Z" fill="#3A3B7B"/>
<path d="M30.5444 9.94541C30.6769 9.84959 30.8145 9.81602 30.8848 9.87828C31.9166 10.7252 32.4637 12.0663 32.8025 13.2941C32.8153 13.3227 32.8161 13.3638 32.8059 13.4066C32.8017 13.4432 32.7738 13.4818 32.7296 13.5118C32.6823 13.5448 32.6416 13.5548 32.6225 13.5264C32.1703 12.936 29.5875 10.6392 30.5444 9.94541Z" fill="#3A3B7B"/>
<path d="M8.69524 24.6285C8.94253 24.4518 9.21137 24.3047 9.49586 24.1905C9.7935 24.1089 10.1107 24.1224 10.3997 24.2291C10.6885 24.3359 10.9334 24.53 11.0971 24.7822C11.2435 25.0337 11.3008 25.3241 11.2604 25.6096C11.2199 25.8951 11.084 26.1602 10.8729 26.3651C10.7093 26.5312 10.5235 26.6759 10.3205 26.7954C9.41582 27.3564 8.50308 27.8866 7.59039 28.4475C7.40363 28.5879 7.20551 28.7139 6.99793 28.8241C6.68217 28.9752 6.32132 29.0157 5.97776 28.9385C5.6342 28.8614 5.32955 28.6713 5.11648 28.4014C4.95719 28.2103 4.82277 28.0013 4.71616 27.779C3.8515 26.0347 2.95481 24.2981 2.12217 22.523C1.73787 21.7546 1.42563 20.8709 1.12139 20.018C0.989767 19.7702 0.964063 19.4829 1.04976 19.2171C1.13545 18.9514 1.32577 18.7282 1.58025 18.5951C1.83473 18.462 2.13327 18.4294 2.4124 18.5043C2.69152 18.5791 2.92921 18.7556 3.0749 18.996C3.52271 19.5672 3.91911 20.1739 4.25981 20.8095C5.12448 22.3463 5.94912 23.8831 6.78176 25.3738C6.83024 25.4562 6.8837 25.5357 6.94188 25.612C7.56859 25.3591 8.15803 25.0285 8.69524 24.6285Z" fill="#3A3B7B"/>
<path d="M17.6354 24.0924C15.6579 26.313 12.3433 25.7521 10.678 22.8936C9.49308 20.865 9.28493 17.5147 11.8629 15.4016C12.4135 14.9592 13.0717 14.6578 13.7764 14.5256C14.6404 14.4067 15.5214 14.553 16.2936 14.9435C17.0657 15.3341 17.6895 15.9489 18.0757 16.7002C19.4848 19.1591 19.2847 22.2942 17.6354 24.0924ZM16.8347 18.9132C16.6247 18.309 16.2032 17.7931 15.6418 17.4532C15.3242 17.2359 14.9382 17.1302 14.5489 17.154C14.1595 17.1778 13.7906 17.3296 13.5042 17.5838C12.3593 18.5597 12.1191 20.8727 12.9517 22.2481C13.0579 22.4724 13.2137 22.6717 13.4085 22.8322C13.6033 22.9926 13.8323 23.1102 14.0793 23.1768C14.3264 23.2434 14.5857 23.2574 14.839 23.2178C15.0923 23.1781 15.3335 23.0859 15.5458 22.9474C16.1664 22.4856 16.6217 21.8497 16.8484 21.1281C17.0751 20.4065 17.062 19.635 16.8108 18.9209L16.8347 18.9132Z" fill="#3A3B7B"/>
<path d="M25.7055 19.8815C25.5031 19.9233 25.294 19.9258 25.0904 19.8888C24.887 19.8518 24.6932 19.7762 24.5207 19.6663C24.3697 19.5834 24.2397 19.4695 24.14 19.3326C24.0405 19.1957 23.9737 19.0394 23.9446 18.8747C23.9155 18.7101 23.9248 18.5414 23.9718 18.3807C24.0188 18.2199 24.1024 18.0712 24.2164 17.9451C24.4152 17.6917 24.6973 17.5103 25.0171 17.4303C25.8518 17.1977 26.7112 17.056 27.579 17.0076C27.7697 16.9864 27.9629 17.0018 28.1472 17.0532C28.3316 17.1046 28.5033 17.1907 28.6525 17.3067C28.8016 17.4227 28.9252 17.5661 29.0158 17.7285C29.1064 17.8909 29.1623 18.069 29.1802 18.2525C29.4304 19.1534 29.4578 20.0981 29.2603 21.0111C28.5398 23.9618 26.0578 24.9761 23.2717 24.0309C22.4896 23.7782 21.8039 23.3074 21.3022 22.6785C20.633 21.9212 20.1586 21.0237 19.9171 20.0582C19.7214 19.1985 19.7428 18.3063 19.9797 17.4562C20.2164 16.606 20.6616 15.8225 21.2781 15.1711C21.8632 14.4631 22.6226 13.906 23.4879 13.5498C24.0346 13.2605 24.6744 13.1783 25.2813 13.3192C25.4189 13.3558 25.5439 13.4271 25.6432 13.5256C25.7425 13.6241 25.8125 13.7464 25.846 13.8797C25.8795 14.0129 25.8752 14.1524 25.8336 14.2835C25.792 14.4147 25.7147 14.5328 25.6095 14.6255C25.4096 14.7992 25.1924 14.9537 24.961 15.0866C24.2492 15.5216 23.6298 16.0822 23.1356 16.7387C22.8116 17.1635 22.5885 17.6512 22.482 18.1676C22.3755 18.684 22.3881 19.2166 22.5191 19.7278C22.7007 20.4249 23.1036 21.0506 23.672 21.5182C25.4333 23.0551 27.7231 21.572 27.3228 19.4742C26.7384 19.6126 26.226 19.7586 25.7055 19.8815Z" fill="#3A3B7B"/>
<path d="M36.466 24.2151C33.864 25.7519 30.9017 24.2151 30.2532 20.9878C29.7809 18.6825 30.6776 15.4552 33.816 14.2257C34.4838 13.9698 35.208 13.8799 35.9216 13.9645C36.779 14.1151 37.5655 14.5202 38.1702 15.1226C38.7748 15.7251 39.1674 16.4945 39.2922 17.3224C39.8206 20.0656 38.6197 22.9933 36.466 24.2151ZM37.3708 19.0437C37.37 18.4053 37.1347 17.7876 36.7062 17.2994C36.4772 16.9974 36.1461 16.781 35.7695 16.6871C35.3927 16.5932 34.9938 16.6276 34.6406 16.7846C33.2315 17.3685 32.2388 19.4893 32.5991 21.0493C32.6266 21.2941 32.7094 21.5301 32.8419 21.741C32.9744 21.9518 33.1532 22.1324 33.366 22.27C33.5787 22.4075 33.8202 22.4989 34.0736 22.5376C34.327 22.5762 34.5861 22.5613 34.8328 22.4939C35.5776 22.2441 36.2225 21.7774 36.6774 21.1589C37.1325 20.5403 37.3749 19.8008 37.3708 19.0437Z" fill="#3A3B7B"/>
<path d="M41.9235 24.8609C41.8842 25.1421 41.7302 25.3969 41.4952 25.5691C41.2602 25.7413 40.9635 25.8169 40.6705 25.7792C40.3775 25.7415 40.1121 25.5936 39.9327 25.368C39.7532 25.1425 39.6745 24.8578 39.7138 24.5766C39.7531 24.2953 39.9072 24.0406 40.1421 23.8684C40.3771 23.6962 40.6737 23.6206 40.9668 23.6583C41.2598 23.696 41.5252 23.8439 41.7047 24.0694C41.8841 24.295 41.9628 24.5797 41.9235 24.8609ZM41.2269 14.495C41.3792 14.2718 41.6026 14.1018 41.8638 14.0104C42.1249 13.919 42.4099 13.9111 42.6761 13.9878C42.9467 14.0528 43.1858 14.2051 43.3535 14.4191C43.5211 14.6331 43.607 14.8959 43.5968 15.1635C43.5615 15.5927 43.4946 16.0189 43.3967 16.4391C43.1325 17.8606 42.8762 19.2822 42.596 20.6884C42.4679 21.2494 42.2998 21.7872 42.1156 22.3558C42.0516 22.5336 41.9446 22.6942 41.8034 22.8246C41.7157 22.9227 41.6036 22.9979 41.4775 23.0433C41.3514 23.0888 41.2155 23.1029 41.0822 23.0845C40.9489 23.0661 40.8225 23.0158 40.7149 22.9381C40.6073 22.8604 40.5218 22.758 40.4664 22.6402C40.3712 22.4289 40.3195 22.2018 40.3143 21.9717C40.3143 21.0188 40.3143 20.0583 40.3783 19.0978C40.4872 17.727 40.7012 16.3657 41.0188 15.0252C41.0562 14.8456 41.1266 14.6738 41.2269 14.518V14.495Z" fill="#3A3B7B"/>
<path fill-rule="evenodd" clip-rule="evenodd" d="M5.31263 31.0356C5.2181 31.2382 5.19218 31.464 5.23837 31.6813C5.2691 31.9677 5.3366 32.2495 5.43933 32.5201C5.56759 32.8515 5.71111 33.1792 5.88807 33.5831C5.92876 33.676 5.97129 33.773 6.01579 33.8751C6.25443 34.4223 6.55386 35.1216 6.95326 36.1336C7.06631 36.4211 7.1667 36.711 7.26779 37.0028C7.30862 37.1207 7.34961 37.2391 7.39156 37.3576C7.54193 37.7792 7.80067 38.1579 8.14364 38.458C8.28927 38.623 8.48244 38.7432 8.69904 38.8033C8.91988 38.8646 9.15474 38.8607 9.37323 38.7922C9.59171 38.7236 9.7836 38.5935 9.924 38.4188C10.0616 38.2475 10.1435 38.041 10.1594 37.8254C10.2487 37.4053 10.2182 36.9697 10.071 36.5647C9.83745 35.8922 9.57136 35.2187 9.26452 34.56L9.26311 34.5571C8.75833 33.5266 8.24523 32.5032 7.70784 31.4793L7.70382 31.4721C7.5465 31.2054 7.34206 30.9669 7.09967 30.7675C6.94232 30.5895 6.72526 30.4694 6.48556 30.428C6.24076 30.3858 5.98827 30.4283 5.77319 30.5482C5.56972 30.6597 5.40843 30.8304 5.31263 31.0356Z" fill="#3A3B7B"/>
<path fill-rule="evenodd" clip-rule="evenodd" d="M13.0224 28.498C12.2309 28.3013 11.4043 28.2726 10.6002 28.414C9.97743 28.4729 9.36488 28.6108 8.93953 28.8839C8.7232 29.0229 8.54829 29.2014 8.451 29.4282C8.35318 29.6564 8.34069 29.9172 8.42086 30.2079C8.56723 30.7403 8.75731 31.2579 8.94672 31.7739L8.9774 31.8575L8.97814 31.8594C9.54845 33.3584 10.1242 34.8524 10.7052 36.3412C10.7729 36.5758 10.8687 36.8022 10.9907 37.0156L10.993 37.0196C11.154 37.2848 11.3606 37.522 11.604 37.7213C11.7258 37.8308 11.8763 37.9066 12.0395 37.9405C12.2044 37.9746 12.3758 37.9647 12.5351 37.9117C12.6945 37.8588 12.8356 37.7649 12.9432 37.6402C13.049 37.5175 13.1183 37.3698 13.1438 37.2125C13.2488 36.7853 13.2151 36.3374 13.0473 35.9291C12.9949 35.7916 12.9538 35.6512 12.9105 35.5033C12.8961 35.454 12.8814 35.4039 12.866 35.3528C14.1959 34.8539 15.6109 34.183 16.1085 32.6223C16.3034 32.0829 16.3196 31.4989 16.155 30.9503C15.9902 30.4011 15.6521 29.9143 15.1874 29.5569C14.5548 29.0566 13.8159 28.6952 13.0224 28.498ZM10.8285 30.4123C10.8547 30.4051 10.8811 30.3984 10.9076 30.3921C11.7734 30.2615 12.6592 30.4355 13.4019 30.8821C13.7292 31.1006 13.8633 31.3434 13.8864 31.5769C13.9101 31.8174 13.819 32.0781 13.636 32.3286C13.2901 32.8018 12.659 33.1806 12.0889 33.2512C11.6733 32.3325 11.2512 31.3767 10.8285 30.4123Z" fill="#3A3B7B"/>
<path d="M18.2991 26.8163C19.2417 26.3985 20.4092 26.3263 21.3228 26.6201C21.5529 26.6844 21.7525 26.8236 21.8876 27.0137C22.0217 27.2027 22.0836 27.4304 22.0629 27.658C22.0616 27.8058 22.0238 27.9512 21.9527 28.0824C21.8803 28.2159 21.7755 28.3307 21.6471 28.4172C21.5187 28.5036 21.3706 28.5591 21.2151 28.579C21.0596 28.5989 20.9015 28.5825 20.754 28.5313L20.7428 28.5274L20.7322 28.5221C20.6568 28.4842 20.5766 28.4557 20.4937 28.4371L20.4884 28.436C19.8457 28.2721 19.2395 28.5436 19.0181 28.8772C18.9125 29.0362 18.8994 29.1967 18.9873 29.3428C19.0815 29.4992 19.3126 29.6747 19.7801 29.7998C19.9087 29.8337 20.0405 29.8664 20.1741 29.8996C20.5438 29.9915 20.928 30.0869 21.2995 30.2192L21.3009 30.2197C23.0148 30.8456 23.653 32.1418 23.4345 33.361C23.2184 34.5667 22.1693 35.6639 20.5916 35.9228C20.0176 36.0449 19.4201 36.0211 18.8585 35.8538C18.2954 35.6859 17.7879 35.3796 17.3863 34.9652L17.3758 34.9544C17.2491 34.7982 17.1638 34.6148 17.126 34.4202C17.0912 34.2445 17.1095 34.063 17.1787 33.897C17.2474 33.7319 17.3637 33.5891 17.5138 33.4851C17.6723 33.3671 17.8634 33.2963 18.0634 33.2815C18.2628 33.2668 18.4623 33.3084 18.6373 33.4011C18.8121 33.4822 18.9748 33.5856 19.1207 33.7086L19.1235 33.7108C19.3817 33.9375 19.6941 33.9965 19.9937 33.9418C20.2977 33.8863 20.5835 33.7137 20.7673 33.4847C20.95 33.2571 21.0233 32.9867 20.9363 32.7243C20.8487 32.4599 20.5854 32.1637 20.007 31.9161C19.8558 31.8545 19.699 31.8048 19.5359 31.7564C19.492 31.7433 19.4472 31.7304 19.402 31.7172C19.2814 31.682 19.1573 31.6459 19.0357 31.606C18.9519 31.5786 18.8687 31.5526 18.7864 31.5268C18.5614 31.4565 18.3421 31.388 18.131 31.296C17.6715 31.1459 17.2746 30.8576 16.9992 30.4738C16.7227 30.0885 16.5836 29.6277 16.6025 29.1603C16.604 28.0212 17.3515 27.2364 18.2991 26.8163Z" fill="#3A3B7B"/>
<path d="M30.2487 26.695C30.0659 26.6094 29.8638 26.5687 29.6607 26.5767C29.4574 26.5847 29.2595 26.6411 29.0847 26.741C28.911 26.8401 28.7656 26.9789 28.6614 27.1451C28.5658 27.285 28.4997 27.4415 28.4667 27.6058C28.4338 27.7699 28.4346 27.9387 28.469 28.1025C28.503 28.313 28.5408 28.5177 28.578 28.7196C28.6397 29.0537 28.6998 29.3802 28.7394 29.7132L28.7409 29.7217C28.831 30.2438 28.8782 30.772 28.8825 31.3012L28.8829 31.3087C28.9137 31.8803 28.7108 32.4407 28.3177 32.8711L28.3114 32.8788C28.1835 33.0361 28.0125 33.1562 27.8174 33.2256C27.6225 33.295 27.4112 33.3109 27.2073 33.2716C27.0034 33.2324 26.8149 33.1394 26.6629 33.0032C26.5109 32.867 26.4013 32.6923 26.3465 32.4998C26.2297 32.094 26.1621 31.6766 26.1449 31.2559L26.3445 28.2068C26.3474 28.167 26.3508 28.1261 26.3542 28.0849C26.3618 27.9923 26.3696 27.8979 26.3728 27.81C26.3775 27.6805 26.3735 27.5474 26.3421 27.4214C26.3099 27.2926 26.2487 27.17 26.1402 27.0657C26.0328 26.9624 25.8878 26.8862 25.7053 26.8344C25.3753 26.7427 25.0962 26.7456 24.8637 26.8403C24.631 26.935 24.4717 27.1109 24.3589 27.314C24.2469 27.5154 24.175 27.7539 24.1206 27.9927C24.0803 28.17 24.0478 28.356 24.017 28.5331C24.0064 28.5941 23.9959 28.6541 23.9854 28.7123L23.9851 28.714C23.8202 29.6852 23.7712 30.6713 23.8388 31.6532C23.8515 32.1839 23.9667 32.7077 24.1789 33.1978C24.4183 33.8303 24.8518 34.3783 25.4223 34.7694C25.9941 35.1614 26.6763 35.3774 27.3787 35.3888C28.0812 35.4002 28.7707 35.2065 29.3559 34.8334C29.9402 34.4608 30.393 33.9268 30.6544 33.302C31.0202 32.5062 31.1919 31.6407 31.1565 30.7715C31.135 30.1369 31.099 29.4974 31.0632 28.8612C31.0456 28.5491 31.0281 28.2377 31.0124 27.9282C31.0045 27.6178 30.8978 27.3172 30.7067 27.0667C30.5885 26.9083 30.4311 26.7806 30.2487 26.695Z" fill="#3A3B7B"/>
<path d="M36.7174 31.4763C36.6988 31.4989 36.6793 31.5223 36.6589 31.5466C36.5102 30.7235 36.3725 29.9007 36.2345 29.0766C36.185 28.781 36.1352 28.4841 36.0852 28.188L36.0796 28.155L36.0613 28.1264C36.0269 28.0727 36.0234 28.0201 36.0234 27.9077V27.8948L36.0214 27.8819C35.984 27.65 35.8747 27.4341 35.7077 27.2626C35.5412 27.0916 35.325 26.9726 35.0871 26.9209C34.8496 26.8647 34.6 26.8771 34.3698 26.9565C34.1402 27.0358 33.94 27.1783 33.7943 27.3662C33.6732 27.5103 33.5739 27.6702 33.4995 27.841C33.3306 28.2091 33.1603 28.578 32.9895 28.948L32.9865 28.9544C32.5601 29.878 32.1308 30.8077 31.7139 31.7448L31.7127 31.7479C31.4568 32.3555 31.2456 32.9957 31.0351 33.634C30.993 33.7614 30.951 33.8887 30.9086 34.0157C30.8326 34.2172 30.7994 34.4311 30.8108 34.645C30.797 34.8364 30.8447 35.0274 30.9477 35.1921C31.0527 35.3602 31.21 35.4924 31.3974 35.5703C31.596 35.6538 31.8181 35.6716 32.0284 35.6207C32.2383 35.5699 32.4247 35.4536 32.5583 35.2902C32.7288 35.0888 32.8755 34.8692 32.9952 34.6365C33.3483 33.9433 33.6857 33.2416 34.0216 32.543C34.1516 32.2728 34.2779 32.0308 34.4216 31.7672C34.4315 31.7997 34.4416 31.8314 34.452 31.8631C34.6026 32.4995 34.8568 33.109 35.2052 33.6694C35.2711 33.7881 35.363 33.8918 35.4744 33.9735C35.5872 34.0561 35.7174 34.1141 35.8559 34.1436C35.9944 34.1731 36.138 34.1732 36.2766 34.144C36.415 34.1149 36.5455 34.0568 36.6584 33.9745L36.8818 33.8141L38.6156 32.4124L38.5131 33.0395C38.3724 33.9015 38.2327 34.7564 38.0843 35.6114C37.9872 35.9904 37.9874 36.3862 38.0847 36.7651C38.1269 36.9783 38.2343 37.1746 38.3933 37.3289C38.5537 37.4845 38.759 37.5902 38.9827 37.6324C39.2064 37.6745 39.4382 37.6512 39.6479 37.5653C39.8545 37.4808 40.0303 37.3393 40.1532 37.1591C40.4391 36.8187 40.617 36.4065 40.6659 35.9717C40.7395 35.3577 40.8226 34.7353 40.9058 34.1131C41.0016 33.396 41.0974 32.679 41.1783 31.9758L41.1786 31.9737C41.2565 31.2039 41.2942 30.431 41.2915 29.6576C41.3086 29.4132 41.2452 29.1698 41.1101 28.9617C40.9746 28.7529 40.7738 28.5906 40.5365 28.4977C40.2897 28.39 40.0134 28.3612 39.7483 28.4156C39.4849 28.4697 39.2464 28.603 39.0676 28.796C38.7478 29.0799 38.4478 29.3836 38.1695 29.7053L38.1676 29.7075C37.8638 30.0709 37.562 30.4414 37.2622 30.8095C37.0799 31.0332 36.8982 31.2565 36.7174 31.4763Z" fill="#3A3B7B"/>
</g>
<defs>
<clipPath id="clip0_2_949">
<rect width="47" height="29" fill="white" transform="translate(1 9.84668)"/>
</clipPath>
</defs>
</svg>
